# xmcd
#
# Track frame offsets:
#  150
#  11250
#  21583
#  30623
#  43513
#  55830
#  70526
#  85773
#  94238
#  105465
#  112618
#  124969
#  134069
#
# Disc length: 1939 seconds
#
# Revision: 0
# Processed by: cddbd v1.5.2PL0 Copyright (c) Steve Scherf et al.
# Submitted via: AltoMP3_Maker 3.0
#
DISCID=a107910d
DTITLE=South River Band - Bacalao
DYEAR=1900
DGENRE=
TTITLE0=Dramm fyrir dagmál
TTITLE1=Dansað við Helgu
TTITLE2=Gamla salthúsið
TTITLE3=Góðglaður gaur
TTITLE4=Sveitungi snýr aftur
TTITLE5=Brúðkaupsvals
TTITLE6=Nótt í beituskúrnum
TTITLE7=Polkinn
TTITLE8=Hörgadansinn
TTITLE9=Mánaskin
TTITLE10=Kveðjustund
TTITLE11=Kampakátir
TTITLE12=Á blístri af berjum
EXTD=
EXTT0=
EXTT1=
EXTT2=
EXTT3=
EXTT4=
EXTT5=
EXTT6=
EXTT7=
EXTT8=
EXTT9=
EXTT10=
EXTT11=
EXTT12=
PLAYORDER=
